<svg xmlns="http://www.w3.org/2000/svg" xmlns:xlink="http://www.w3.org/1999/xlink" width="666.8457946777344" height="358.9535827636719" viewBox="0 0 666.8457946777344 358.9535827636719" fill="none">
<path d="M346.085 129.328C340.338 129.319 335.045 127.371 330.827 124.102C330.059 123.522 328.925 122.683 327.426 121.586C324.085 119.142 320.361 116.479 316.253 113.597C302.98 104.284 288.415 94.5747 272.559 84.4679C264.3 79.2414 256.574 74.8049 249.382 71.1586C241.541 67.1833 233.875 63.9101 226.384 61.3391C218.415 58.6042 210.326 56.5517 202.117 55.1816C193.364 53.7207 184.221 52.9903 174.688 52.9903C163.001 52.9903 152.035 54.0099 141.792 56.0492C132.324 57.9341 123.517 60.6819 115.372 64.2926C107.796 67.6512 100.817 71.7454 94.4372 76.5753C88.4107 81.1373 82.9422 86.3361 78.0317 92.1716C73.3264 97.7634 69.1711 103.892 65.5659 110.559C62.0876 116.991 59.1685 123.832 56.8087 131.083C54.5286 138.089 52.8142 145.339 51.6653 152.834C50.5551 160.076 50 167.363 50 174.695C50 187.282 51.1993 199.005 53.598 209.865C55.7849 219.766 58.9632 228.918 63.133 237.32C70.5681 252.3 81.1191 264.852 94.7862 274.974C101.012 279.584 107.822 283.643 115.216 287.15C122.173 290.449 129.534 293.208 137.3 295.428C144.545 297.498 151.961 299.05 159.548 300.083C166.565 301.038 173.46 301.516 180.233 301.516C204.682 301.516 229.993 292.71 256.164 275.099C268.413 266.856 280.801 256.72 293.327 244.692C304.92 233.559 316.596 220.838 328.353 206.529C348.036 182.573 368.005 154.066 388.262 121.007C395.862 108.604 403.728 95.1869 411.859 80.7568C414.988 75.203 418.32 69.2099 421.855 62.7774C423.941 58.9814 426.854 53.6467 430.593 46.7734C433.74 40.9894 436.01 36.8327 437.401 34.3034C439.712 30.1035 441.651 26.6433 443.217 23.923C445.178 20.5188 446.872 17.7206 448.3 15.5284C449.22 14.1157 450.091 12.8571 450.914 11.7527C452.105 10.1545 453.292 8.74881 454.477 7.53561C466.208 -4.47679 486.21 -1.73959 494.283 12.9829L663.588 321.746C676.559 345.402 648.037 369.992 626.549 353.677L442.542 213.967C436.411 209.411 432.438 202.112 432.438 193.886C432.438 180.133 443.543 168.974 457.276 168.887C457.306 168.887 457.336 168.886 457.367 168.886C457.414 168.886 457.461 168.886 457.508 168.886C457.539 168.886 457.569 168.887 457.599 168.887C463.305 168.923 468.558 170.871 472.748 174.122L563.329 242.896L471.712 75.814C469.249 80.3323 467.237 84.013 465.675 86.8561C462.054 93.4453 458.636 99.5942 455.419 105.303C446.988 120.264 438.814 134.206 430.895 147.13C420.971 163.326 411.116 178.482 401.329 192.598C389.865 209.133 378.417 224.357 366.985 238.271C339.39 271.854 311.755 297.958 284.078 316.582C267.698 327.604 251.288 336.022 234.849 341.836C216.601 348.289 198.396 351.516 180.233 351.516C171.202 351.516 162.059 350.886 152.805 349.626C142.85 348.271 133.102 346.23 123.56 343.503C113.153 340.528 103.23 336.803 93.7917 332.328C83.4568 327.426 73.8691 321.702 65.0284 315.155C55.3899 308.016 46.7613 299.989 39.1428 291.073C30.9501 281.485 24.0176 270.976 18.3454 259.547C12.3641 247.495 7.8405 234.529 4.7747 220.649C1.59157 206.237 0 190.919 0 174.695C0 164.823 0.747533 155.011 2.2426 145.258C3.8028 135.08 6.143 125.197 9.2632 115.61C12.5598 105.48 16.6672 95.8683 21.5854 86.774C26.8118 77.1099 32.8748 68.1782 39.7745 59.9787C47.0912 51.2836 55.2527 43.5273 64.259 36.7096C73.7185 29.5487 84.0019 23.5064 95.109 18.5826C106.631 13.4748 118.938 9.61781 132.029 7.01161C145.495 4.33074 159.715 2.99031 174.688 2.99031C186.984 2.99031 198.871 3.94811 210.348 5.86371C221.28 7.68824 232.036 10.4159 242.615 14.0467C252.295 17.369 262.088 21.5411 271.993 26.563C280.597 30.9256 289.744 36.1728 299.433 42.3044C315.913 52.8087 331.092 62.9295 344.971 72.6668C349.348 75.7375 353.34 78.5923 356.947 81.2312C358.658 82.4829 360.01 83.4837 361.001 84.2336C367.066 88.7308 371.024 95.9083 371.123 104.015C371.123 104.03 371.123 104.045 371.124 104.06C371.125 104.237 371.125 104.414 371.124 104.59C371.123 104.607 371.123 104.624 371.123 104.641C370.955 118.304 359.828 129.328 346.125 129.328L346.12 129.328L346.085 129.328Z" fill-rule="evenodd"  fill="#000000" fill-opacity="0.2">
</path>
</svg>
