<?xml version="1.0" standalone="no"?><!DOCTYPE svg PUBLIC "-//W3C//DTD SVG 1.1//EN" "http://www.w3.org/Graphics/SVG/1.1/DTD/svg11.dtd"><svg t="1751648212899" class="icon" viewBox="0 0 1024 1024" version="1.1" xmlns="http://www.w3.org/2000/svg" p-id="8511" xmlns:xlink="http://www.w3.org/1999/xlink" width="200" height="200"><path d="M653.872 77.28a100.16 100.16 0 0 0-16.624 2.592l-5.024 1.248a97.92 97.92 0 0 0-65.888 53.856l-15.936 33.872a51.12 51.12 0 0 0-57.44-23.472l-151.84 42.848a51.152 51.152 0 0 0-35.84 62.72l0.192 0.48-54.944-34.144c-23.68-14.72-53.504-18.592-79.44-10.88-44.624 12.896-73.904 54.192-71.184 100.912l39.152 452.64c2.48 44.416 25.6 83.328 61.792 104.016a126.912 126.912 0 0 0 97.12 12.432l15.056-4.112 0.352 0.96a118.08 118.08 0 0 0 58.368 70.032 119.328 119.328 0 0 0 90.72 8.352 118.192 118.192 0 0 0 70-58.16c3.52-6.64 6.32-13.536 8.512-20.528 4.832 5.04 10.112 9.648 16.32 13.184a70.848 70.848 0 0 0 54.48 6.752 72.224 72.224 0 0 0 41.728-31.248c11.52 2.752 23.728 2.544 35.408-0.752 26.304-7.36 44.976-29.008 51.04-54.72l16.832 56.208a68.768 68.768 0 0 0 66.24 50.608c5.968 0 12-0.8 18-2.448 36.512-9.952 58.112-47.744 48.064-84.64l-30.624-102.208 17.248-4.672a128.624 128.624 0 0 0 71.728-50.848c26.016-37.888 28.064-88.32 5.44-131.312L748.24 129.872a98.56 98.56 0 0 0-94.368-52.592z m2.24 31.872a66.56 66.56 0 0 1 63.68 35.312l204.64 407.04c16.96 32.208 15.632 70.848-3.312 98.432a96.608 96.608 0 0 1-53.808 38.192l-333.152 90.88-0.032-0.128a47.536 47.536 0 0 0-22.944-28.848 47.12 47.12 0 0 0-36.32-4.128 47.568 47.568 0 0 0-28.832 22.848 47.44 47.44 0 0 0-4.352 35.344l-60.592 16.48c-0.192 0.048-0.32 0.176-0.528 0.24-0.128 0.032-0.24 0.016-0.368 0.064-0.688 0.224-1.168 0.72-1.792 1.024-1.2 0.592-2.4 1.12-3.392 1.968-0.64 0.528-1.008 1.216-1.536 1.808-0.816 0.96-1.68 1.824-2.24 2.912-0.432 0.8-0.608 1.696-0.896 2.56-0.336 1.072-0.752 2.08-0.864 3.216-0.112 0.96 0.112 1.92 0.192 2.88 0.064 0.992-0.096 1.968 0.176 2.976 0.064 0.192 0.192 0.352 0.256 0.56 0.032 0.128 0.016 0.24 0.064 0.368l4.56 13.472c4.32 13.76 13.84 25.12 26.944 32.128a55.424 55.424 0 0 0 41.84 3.776c29.024-9.008 45.296-39.968 36.4-68.624l-7.216-25.536a15.68 15.68 0 0 1 11.04-19.68 15.504 15.504 0 0 1 12 1.344 15.744 15.744 0 0 1 7.584 9.6l7.152 25.152a85.488 85.488 0 0 1-6.272 65.712 86.688 86.688 0 0 1-51.28 42.592c-20.72 6.56-45.808 4.64-66.288-6.112-20.624-10.8-35.808-28.96-42.944-51.888l-5.6-15.52c-0.288-0.832-0.88-1.44-1.296-2.192-0.528-0.944-0.944-1.92-1.632-2.72-0.704-0.832-1.584-1.44-2.432-2.08-0.768-0.608-1.472-1.248-2.352-1.696-0.96-0.496-1.952-0.736-2.992-1.04-0.944-0.272-1.824-0.624-2.816-0.72-1.088-0.096-2.16 0.128-3.28 0.256-0.832 0.096-1.632-0.064-2.464 0.16l-29.28 8a94.784 94.784 0 0 1-72.8-9.344c-26.736-15.296-43.856-44.464-45.76-78.512L131.808 305.008a66.368 66.368 0 0 1 48.32-67.92 66.56 66.56 0 0 1 53.504 7.376l90.88 56.512c3.76 2.352 8.352 2.992 12.64 1.84l205.792-56.192a15.92 15.92 0 0 0 10.24-8.592l42.096-89.504a66.24 66.24 0 0 1 44.592-36.368l5.008-1.248c3.744-0.912 7.52-1.504 11.248-1.76z m-147.024 66.528a19.088 19.088 0 0 1 2.352 37.376l-151.84 42.848a18.928 18.928 0 0 1-14.48-1.84 18.912 18.912 0 0 1-8.928-11.52 19.152 19.152 0 0 1 13.52-23.52l151.824-42.832c2.544-0.688 5.104-0.832 7.552-0.512z m67.664 118.08a16 16 0 0 0-17.6 20.064l8.448 30.88a16.016 16.016 0 0 0 30.88-8.432l-8.416-30.88a16 16 0 0 0-13.312-11.648z m-77.184 21.024a16.016 16.016 0 0 0-17.6 20.096l8.432 30.88a16 16 0 0 0 30.88-8.448l-8.4-30.88a16 16 0 0 0-13.312-11.648z m-77.2 21.056a15.968 15.968 0 0 0-17.552 20.064l8.4 30.88a16 16 0 0 0 30.88-8.4l-8.416-30.88a16 16 0 0 0-13.312-11.664z m-77.184 21.008a16 16 0 0 0-17.568 20.096l8.416 30.88a16.016 16.016 0 0 0 30.88-8.416l-8.416-30.912a16 16 0 0 0-13.312-11.648z m293.632 18.304a82.016 82.016 0 0 0-12.848 0.912 105.28 105.28 0 0 0-10.784 2.272L354.592 454.24c-3.36 0.88-6.608 1.952-9.808 3.184-33.968 13.12-56.112 47.792-55.12 86.24 1.664 64.944 4.208 104.048 7.552 116.32a113.584 113.584 0 0 0 53.568 69.184 113.568 113.568 0 0 0 86.752 11.008l255.776-69.728a113.616 113.616 0 0 0 69.152-53.552 113.84 113.84 0 0 0 10.944-87.2c-3.6-13.264-23.664-50.24-59.568-109.92-16.704-27.76-45.184-44.32-75.04-44.608z m-1.008 32c18.896 0 37.776 11.12 48.592 29.12 38.24 63.52 54.032 94.256 56.224 102.288a81.792 81.792 0 0 1-7.904 62.464 81.744 81.744 0 0 1-49.808 38.544L429.088 709.28a81.6 81.6 0 0 1-62.464-7.904 81.744 81.744 0 0 1-38.528-49.808c-1.936-7.136-4.656-39.44-6.432-108.72-0.64-25.008 13.28-47.344 34.656-55.6 2.16-0.832 4.352-1.536 6.928-2.24l260.56-75.84c2.288-0.64 4.608-1.152 6.944-1.488 2.336-0.352 4.704-0.528 7.056-0.528z m-30.896 73.92a35.088 35.088 0 0 0-31.664 44.224l10.912 39.952a35.056 35.056 0 1 0 67.68-18.432l-10.88-39.968a35.104 35.104 0 0 0-36.048-25.792zM441.712 526.08a35.12 35.12 0 0 0-31.632 44.256l10.912 39.936a35.072 35.072 0 1 0 67.696-18.448l-10.912-39.968a35.104 35.104 0 0 0-36.064-25.776z m385.888 206.032l30.736 102.56a36.704 36.704 0 0 1-25.712 44.992 36.72 36.72 0 0 1-45.056-26.08l-30.624-102.24 70.656-19.232z m-122.128 33.312l3.44 11.872c6 22.976-6.832 46.64-28.656 52.752a37.92 37.92 0 0 1-27.472-2.56 15.968 15.968 0 0 0-22.224 8.688c-4.8 12.864-14.8 22.32-27.44 25.872-10.176 2.832-20.8 1.504-29.968-3.728-9.792-5.6-16.832-14.928-19.936-26.592l-6.624-22.992 158.88-43.312z m-255.408 69.536c0.592 4.656-0.224 9.392-2.464 13.648-2.88 5.472-7.712 9.504-13.536 11.312-5.92 1.776-12.224 1.216-17.536-1.536a23.36 23.36 0 0 1-10.464-11.456l44-11.968z" fill="#1A1A1A" p-id="8512"></path></svg>